<mxfile host="app.diagrams.net" modified="2023-06-24T14:30:39.910Z" agent="Mozilla/5.0 (Macintosh; Intel Mac OS X 10_15_7) AppleWebKit/537.36 (KHTML, like Gecko) Chrome/112.0.0.0 Safari/537.36" etag="C14mqkzubQpciRx6n3ao" version="21.2.0" type="device">
  <diagram id="C5RBs43oDa-KdzZeNtuy" name="Page-1">
    <mxGraphModel dx="2901" dy="1046" grid="1" gridSize="10" guides="1" tooltips="1" connect="1" arrows="1" fold="1" page="1" pageScale="1" pageWidth="827" pageHeight="1169" math="0" shadow="0">
      <root>
        <mxCell id="WIyWlLk6GJQsqaUBKTNV-0" />
        <mxCell id="WIyWlLk6GJQsqaUBKTNV-1" parent="WIyWlLk6GJQsqaUBKTNV-0" />
        <mxCell id="WIyWlLk6GJQsqaUBKTNV-7" value="POS" style="rounded=1;whiteSpace=wrap;html=1;fontSize=12;glass=0;strokeWidth=1;shadow=0;" parent="WIyWlLk6GJQsqaUBKTNV-1" vertex="1">
          <mxGeometry x="-590" y="70" width="120" height="40" as="geometry" />
        </mxCell>
        <mxCell id="tBe_F2XYtukOdVu6AqGG-4" value="" style="endArrow=classic;html=1;rounded=0;" edge="1" parent="WIyWlLk6GJQsqaUBKTNV-1">
          <mxGeometry width="50" height="50" relative="1" as="geometry">
            <mxPoint x="-530.5" y="110" as="sourcePoint" />
            <mxPoint x="-530.5" y="160" as="targetPoint" />
          </mxGeometry>
        </mxCell>
        <mxCell id="tBe_F2XYtukOdVu6AqGG-5" value="Source Processor" style="ellipse;whiteSpace=wrap;html=1;" vertex="1" parent="WIyWlLk6GJQsqaUBKTNV-1">
          <mxGeometry x="-590" y="160" width="120" height="40" as="geometry" />
        </mxCell>
        <mxCell id="tBe_F2XYtukOdVu6AqGG-6" value="" style="endArrow=classic;html=1;rounded=0;" edge="1" parent="WIyWlLk6GJQsqaUBKTNV-1">
          <mxGeometry width="50" height="50" relative="1" as="geometry">
            <mxPoint x="-460" y="179.5" as="sourcePoint" />
            <mxPoint x="-400" y="179.5" as="targetPoint" />
            <Array as="points">
              <mxPoint x="-470" y="179.5" />
            </Array>
          </mxGeometry>
        </mxCell>
        <mxCell id="tBe_F2XYtukOdVu6AqGG-7" value="Filter ()&lt;br&gt;Home Delivery" style="ellipse;whiteSpace=wrap;html=1;" vertex="1" parent="WIyWlLk6GJQsqaUBKTNV-1">
          <mxGeometry x="-400" y="150" width="150" height="60" as="geometry" />
        </mxCell>
        <mxCell id="tBe_F2XYtukOdVu6AqGG-8" value="to Sink Processor" style="ellipse;whiteSpace=wrap;html=1;" vertex="1" parent="WIyWlLk6GJQsqaUBKTNV-1">
          <mxGeometry x="-130" y="140" width="120" height="80" as="geometry" />
        </mxCell>
        <mxCell id="tBe_F2XYtukOdVu6AqGG-9" value="" style="endArrow=classic;html=1;rounded=0;entryX=-0.017;entryY=0.613;entryDx=0;entryDy=0;entryPerimeter=0;" edge="1" parent="WIyWlLk6GJQsqaUBKTNV-1" target="tBe_F2XYtukOdVu6AqGG-8">
          <mxGeometry width="50" height="50" relative="1" as="geometry">
            <mxPoint x="-250" y="190" as="sourcePoint" />
            <mxPoint x="-200" y="140" as="targetPoint" />
          </mxGeometry>
        </mxCell>
        <mxCell id="tBe_F2XYtukOdVu6AqGG-10" value="" style="endArrow=classic;html=1;rounded=0;entryX=0.5;entryY=1;entryDx=0;entryDy=0;" edge="1" parent="WIyWlLk6GJQsqaUBKTNV-1" target="tBe_F2XYtukOdVu6AqGG-12">
          <mxGeometry width="50" height="50" relative="1" as="geometry">
            <mxPoint x="-80" y="140" as="sourcePoint" />
            <mxPoint x="-30" y="130" as="targetPoint" />
          </mxGeometry>
        </mxCell>
        <mxCell id="tBe_F2XYtukOdVu6AqGG-12" value="Shipment&amp;nbsp;" style="rounded=1;whiteSpace=wrap;html=1;" vertex="1" parent="WIyWlLk6GJQsqaUBKTNV-1">
          <mxGeometry x="-140" y="40" width="120" height="60" as="geometry" />
        </mxCell>
        <mxCell id="tBe_F2XYtukOdVu6AqGG-15" value="KS0" style="text;html=1;align=center;verticalAlign=middle;resizable=0;points=[];autosize=1;strokeColor=none;fillColor=none;" vertex="1" parent="WIyWlLk6GJQsqaUBKTNV-1">
          <mxGeometry x="-475" y="188" width="50" height="30" as="geometry" />
        </mxCell>
        <mxCell id="tBe_F2XYtukOdVu6AqGG-16" value="KS1" style="text;html=1;align=center;verticalAlign=middle;resizable=0;points=[];autosize=1;strokeColor=none;fillColor=none;" vertex="1" parent="WIyWlLk6GJQsqaUBKTNV-1">
          <mxGeometry x="-225" y="188" width="50" height="30" as="geometry" />
        </mxCell>
        <mxCell id="tBe_F2XYtukOdVu6AqGG-17" value="Ks2" style="text;html=1;align=center;verticalAlign=middle;resizable=0;points=[];autosize=1;strokeColor=none;fillColor=none;" vertex="1" parent="WIyWlLk6GJQsqaUBKTNV-1">
          <mxGeometry x="-70" y="110" width="40" height="30" as="geometry" />
        </mxCell>
        <mxCell id="tBe_F2XYtukOdVu6AqGG-19" value="" style="endArrow=classic;html=1;rounded=0;" edge="1" parent="WIyWlLk6GJQsqaUBKTNV-1">
          <mxGeometry width="50" height="50" relative="1" as="geometry">
            <mxPoint x="140" y="240" as="sourcePoint" />
            <mxPoint x="140" y="100" as="targetPoint" />
          </mxGeometry>
        </mxCell>
        <mxCell id="tBe_F2XYtukOdVu6AqGG-20" value="" style="endArrow=classic;html=1;rounded=0;entryX=-0.033;entryY=0.6;entryDx=0;entryDy=0;entryPerimeter=0;" edge="1" parent="WIyWlLk6GJQsqaUBKTNV-1" target="tBe_F2XYtukOdVu6AqGG-27">
          <mxGeometry width="50" height="50" relative="1" as="geometry">
            <mxPoint x="10" y="290" as="sourcePoint" />
            <mxPoint x="60" y="240" as="targetPoint" />
          </mxGeometry>
        </mxCell>
        <mxCell id="tBe_F2XYtukOdVu6AqGG-21" value="" style="endArrow=classic;html=1;rounded=0;entryX=0;entryY=0.5;entryDx=0;entryDy=0;" edge="1" parent="WIyWlLk6GJQsqaUBKTNV-1" target="tBe_F2XYtukOdVu6AqGG-24">
          <mxGeometry width="50" height="50" relative="1" as="geometry">
            <mxPoint x="-530" y="290" as="sourcePoint" />
            <mxPoint x="-430" y="290" as="targetPoint" />
          </mxGeometry>
        </mxCell>
        <mxCell id="tBe_F2XYtukOdVu6AqGG-24" value="fileter() Prme" style="ellipse;whiteSpace=wrap;html=1;" vertex="1" parent="WIyWlLk6GJQsqaUBKTNV-1">
          <mxGeometry x="-375" y="260" width="150" height="60" as="geometry" />
        </mxCell>
        <mxCell id="tBe_F2XYtukOdVu6AqGG-25" value="mapValues() Notification Event" style="ellipse;whiteSpace=wrap;html=1;" vertex="1" parent="WIyWlLk6GJQsqaUBKTNV-1">
          <mxGeometry x="-110" y="250" width="120" height="80" as="geometry" />
        </mxCell>
        <mxCell id="tBe_F2XYtukOdVu6AqGG-26" value="" style="endArrow=classic;html=1;rounded=0;entryX=0;entryY=0.5;entryDx=0;entryDy=0;" edge="1" parent="WIyWlLk6GJQsqaUBKTNV-1">
          <mxGeometry width="50" height="50" relative="1" as="geometry">
            <mxPoint x="-230" y="290" as="sourcePoint" />
            <mxPoint x="-110" y="289.5" as="targetPoint" />
          </mxGeometry>
        </mxCell>
        <mxCell id="tBe_F2XYtukOdVu6AqGG-27" value="to Sink Processor" style="ellipse;whiteSpace=wrap;html=1;" vertex="1" parent="WIyWlLk6GJQsqaUBKTNV-1">
          <mxGeometry x="80" y="240" width="120" height="80" as="geometry" />
        </mxCell>
        <mxCell id="tBe_F2XYtukOdVu6AqGG-28" value="Loyality" style="rounded=1;whiteSpace=wrap;html=1;" vertex="1" parent="WIyWlLk6GJQsqaUBKTNV-1">
          <mxGeometry x="80" y="40" width="120" height="60" as="geometry" />
        </mxCell>
        <mxCell id="tBe_F2XYtukOdVu6AqGG-29" value="" style="endArrow=none;html=1;rounded=0;" edge="1" parent="WIyWlLk6GJQsqaUBKTNV-1">
          <mxGeometry width="50" height="50" relative="1" as="geometry">
            <mxPoint x="-530" y="410" as="sourcePoint" />
            <mxPoint x="-530" y="290" as="targetPoint" />
          </mxGeometry>
        </mxCell>
        <mxCell id="tBe_F2XYtukOdVu6AqGG-30" value="" style="endArrow=none;html=1;rounded=0;" edge="1" parent="WIyWlLk6GJQsqaUBKTNV-1">
          <mxGeometry width="50" height="50" relative="1" as="geometry">
            <mxPoint x="-530" y="290" as="sourcePoint" />
            <mxPoint x="-530" y="200" as="targetPoint" />
          </mxGeometry>
        </mxCell>
        <mxCell id="tBe_F2XYtukOdVu6AqGG-31" value="" style="endArrow=classic;html=1;rounded=0;" edge="1" parent="WIyWlLk6GJQsqaUBKTNV-1" target="tBe_F2XYtukOdVu6AqGG-32">
          <mxGeometry width="50" height="50" relative="1" as="geometry">
            <mxPoint x="-530" y="410" as="sourcePoint" />
            <mxPoint x="-450" y="410" as="targetPoint" />
          </mxGeometry>
        </mxCell>
        <mxCell id="tBe_F2XYtukOdVu6AqGG-32" value="mapValues()&lt;br&gt;Masking" style="ellipse;whiteSpace=wrap;html=1;" vertex="1" parent="WIyWlLk6GJQsqaUBKTNV-1">
          <mxGeometry x="-430" y="370" width="120" height="80" as="geometry" />
        </mxCell>
        <mxCell id="tBe_F2XYtukOdVu6AqGG-33" value="" style="endArrow=classic;html=1;rounded=0;" edge="1" parent="WIyWlLk6GJQsqaUBKTNV-1">
          <mxGeometry width="50" height="50" relative="1" as="geometry">
            <mxPoint x="-310" y="410" as="sourcePoint" />
            <mxPoint x="-230" y="410" as="targetPoint" />
          </mxGeometry>
        </mxCell>
        <mxCell id="tBe_F2XYtukOdVu6AqGG-34" value="FlatMapValues() Anaytics Record" style="ellipse;whiteSpace=wrap;html=1;" vertex="1" parent="WIyWlLk6GJQsqaUBKTNV-1">
          <mxGeometry x="-230" y="370" width="240" height="80" as="geometry" />
        </mxCell>
        <mxCell id="tBe_F2XYtukOdVu6AqGG-36" value="" style="endArrow=classic;html=1;rounded=0;" edge="1" parent="WIyWlLk6GJQsqaUBKTNV-1">
          <mxGeometry width="50" height="50" relative="1" as="geometry">
            <mxPoint x="10" y="410" as="sourcePoint" />
            <mxPoint x="230" y="410" as="targetPoint" />
          </mxGeometry>
        </mxCell>
        <mxCell id="tBe_F2XYtukOdVu6AqGG-37" value="to Sink Processor" style="ellipse;whiteSpace=wrap;html=1;" vertex="1" parent="WIyWlLk6GJQsqaUBKTNV-1">
          <mxGeometry x="230" y="370" width="120" height="80" as="geometry" />
        </mxCell>
        <mxCell id="tBe_F2XYtukOdVu6AqGG-38" value="" style="endArrow=classic;html=1;rounded=0;" edge="1" parent="WIyWlLk6GJQsqaUBKTNV-1" target="tBe_F2XYtukOdVu6AqGG-39">
          <mxGeometry width="50" height="50" relative="1" as="geometry">
            <mxPoint x="300" y="370" as="sourcePoint" />
            <mxPoint x="300" y="80" as="targetPoint" />
          </mxGeometry>
        </mxCell>
        <mxCell id="tBe_F2XYtukOdVu6AqGG-39" value="Hadoop Sink" style="rounded=1;whiteSpace=wrap;html=1;" vertex="1" parent="WIyWlLk6GJQsqaUBKTNV-1">
          <mxGeometry x="240" y="50" width="120" height="60" as="geometry" />
        </mxCell>
      </root>
    </mxGraphModel>
  </diagram>
</mxfile>
